<svg xmlns="http://www.w3.org/2000/svg" xmlns:xlink="http://www.w3.org/1999/xlink" contentStyleType="text/css" height="736px" preserveAspectRatio="none" style="width:830px;height:736px;background:#FFFFFF;" version="1.1" viewBox="0 0 830 736" width="830px" zoomAndPan="magnify"><defs/><g><!--class MapboxController--><g id="elem_MapboxController"><rect codeLine="2" fill="#F1F1F1" height="103.8633" id="MapboxController" rx="2.5" ry="2.5" style="stroke:#181818;stroke-width:0.5;" width="481.9844" x="174.5" y="7"/><ellipse cx="355.9941" cy="23" fill="#ADD1B2" rx="11" ry="11" style="stroke:#181818;stroke-width:1.0;"/><path d="M358.7598,18.875 Q358.916,18.6563 359.1035,18.5469 Q359.291,18.4375 359.5098,18.4375 Q359.8848,18.4375 360.1191,18.7031 Q360.3535,18.9531 360.3535,19.5625 L360.3535,21.0156 Q360.3535,21.625 360.1191,21.8906 Q359.8848,22.1563 359.5098,22.1563 Q359.166,22.1563 358.9629,21.9531 Q358.7598,21.7656 358.6504,21.25 Q358.6035,20.8906 358.416,20.7031 Q358.0879,20.3281 357.4785,20.1094 Q356.8691,19.8906 356.2441,19.8906 Q355.4785,19.8906 354.8379,20.2188 Q354.2129,20.5469 353.7129,21.2969 Q353.2285,22.0469 353.2285,23.0781 L353.2285,24.1719 Q353.2285,25.4063 354.1191,26.2344 Q355.0098,27.0469 356.6035,27.0469 Q357.541,27.0469 358.1973,26.7969 Q358.5879,26.6406 359.0098,26.2031 Q359.2754,25.9375 359.416,25.8594 Q359.5723,25.7813 359.7754,25.7813 Q360.1035,25.7813 360.3535,26.0469 Q360.6191,26.2969 360.6191,26.6406 Q360.6191,26.9844 360.2754,27.3906 Q359.7754,27.9688 358.9785,28.2969 Q357.9004,28.75 356.6035,28.75 Q355.0879,28.75 353.8848,28.125 Q352.9004,27.625 352.2129,26.5625 Q351.5254,25.4844 351.5254,24.2031 L351.5254,23.0469 Q351.5254,21.7188 352.1348,20.5781 Q352.7598,19.4219 353.8535,18.8125 Q354.9473,18.1875 356.1816,18.1875 Q356.916,18.1875 357.5566,18.3594 Q358.2129,18.5156 358.7598,18.875 Z " fill="#000000"/><text fill="#000000" font-family="sans-serif" font-size="14" lengthAdjust="spacing" textLength="110.4961" x="376.4941" y="28.7969">MapboxController</text><line style="stroke:#181818;stroke-width:0.5;" x1="175.5" x2="655.4844" y1="39" y2="39"/><line style="stroke:#181818;stroke-width:0.5;" x1="175.5" x2="655.4844" y1="47" y2="47"/><ellipse cx="185.5" cy="61.8105" fill="#84BE84" rx="3" ry="3" style="stroke:#038048;stroke-width:1.0;"/><text fill="#000000" font-family="sans-serif" font-size="14" lengthAdjust="spacing" textLength="455.9844" x="194.5" y="66.1074">getDirections(origin: String, waypoints: String[], destination: String): String</text><ellipse cx="185.5" cy="80.4316" fill="#84BE84" rx="3" ry="3" style="stroke:#038048;stroke-width:1.0;"/><text fill="#000000" font-family="sans-serif" font-size="14" lengthAdjust="spacing" textLength="121.3926" x="194.5" y="84.7285">getRouting(): String</text><ellipse cx="185.5" cy="99.0527" fill="#84BE84" rx="3" ry="3" style="stroke:#038048;stroke-width:1.0;"/><text fill="#000000" font-family="sans-serif" font-size="14" lengthAdjust="spacing" textLength="128.3926" x="194.5" y="103.3496">nextRouting(): String</text></g><!--class MapboxService--><g id="elem_MapboxService"><rect codeLine="8" fill="#F1F1F1" height="103.8633" id="MapboxService" rx="2.5" ry="2.5" style="stroke:#181818;stroke-width:0.5;" width="481.9844" x="174.5" y="171"/><ellipse cx="362.9976" cy="187" fill="#ADD1B2" rx="11" ry="11" style="stroke:#181818;stroke-width:1.0;"/><path d="M365.7632,182.875 Q365.9194,182.6563 366.1069,182.5469 Q366.2944,182.4375 366.5132,182.4375 Q366.8882,182.4375 367.1226,182.7031 Q367.3569,182.9531 367.3569,183.5625 L367.3569,185.0156 Q367.3569,185.625 367.1226,185.8906 Q366.8882,186.1563 366.5132,186.1563 Q366.1694,186.1563 365.9663,185.9531 Q365.7632,185.7656 365.6538,185.25 Q365.6069,184.8906 365.4194,184.7031 Q365.0913,184.3281 364.4819,184.1094 Q363.8726,183.8906 363.2476,183.8906 Q362.4819,183.8906 361.8413,184.2188 Q361.2163,184.5469 360.7163,185.2969 Q360.2319,186.0469 360.2319,187.0781 L360.2319,188.1719 Q360.2319,189.4063 361.1226,190.2344 Q362.0132,191.0469 363.6069,191.0469 Q364.5444,191.0469 365.2007,190.7969 Q365.5913,190.6406 366.0132,190.2031 Q366.2788,189.9375 366.4194,189.8594 Q366.5757,189.7813 366.7788,189.7813 Q367.1069,189.7813 367.3569,190.0469 Q367.6226,190.2969 367.6226,190.6406 Q367.6226,190.9844 367.2788,191.3906 Q366.7788,191.9688 365.9819,192.2969 Q364.9038,192.75 363.6069,192.75 Q362.0913,192.75 360.8882,192.125 Q359.9038,191.625 359.2163,190.5625 Q358.5288,189.4844 358.5288,188.2031 L358.5288,187.0469 Q358.5288,185.7188 359.1382,184.5781 Q359.7632,183.4219 360.8569,182.8125 Q361.9507,182.1875 363.1851,182.1875 Q363.9194,182.1875 364.5601,182.3594 Q365.2163,182.5156 365.7632,182.875 Z " fill="#000000"/><text fill="#000000" font-family="sans-serif" font-size="14" lengthAdjust="spacing" textLength="96.4893" x="383.4976" y="192.7969">MapboxService</text><line style="stroke:#181818;stroke-width:0.5;" x1="175.5" x2="655.4844" y1="203" y2="203"/><line style="stroke:#181818;stroke-width:0.5;" x1="175.5" x2="655.4844" y1="211" y2="211"/><ellipse cx="185.5" cy="225.8105" fill="#84BE84" rx="3" ry="3" style="stroke:#038048;stroke-width:1.0;"/><text fill="#000000" font-family="sans-serif" font-size="14" lengthAdjust="spacing" textLength="455.9844" x="194.5" y="230.1074">getDirections(origin: String, waypoints: String[], destination: String): String</text><ellipse cx="185.5" cy="244.4316" fill="#84BE84" rx="3" ry="3" style="stroke:#038048;stroke-width:1.0;"/><text fill="#000000" font-family="sans-serif" font-size="14" lengthAdjust="spacing" textLength="121.3926" x="194.5" y="248.7285">getRouting(): String</text><ellipse cx="185.5" cy="263.0527" fill="#84BE84" rx="3" ry="3" style="stroke:#038048;stroke-width:1.0;"/><text fill="#000000" font-family="sans-serif" font-size="14" lengthAdjust="spacing" textLength="117.5029" x="194.5" y="267.3496">nextRouting(): void</text></g><!--class MapboxRoutingManager--><g id="elem_MapboxRoutingManager"><rect codeLine="14" fill="#F1F1F1" height="103.8633" id="MapboxRoutingManager" rx="2.5" ry="2.5" style="stroke:#181818;stroke-width:0.5;" width="481.9844" x="174.5" y="335"/><ellipse cx="334.584" cy="351" fill="#ADD1B2" rx="11" ry="11" style="stroke:#181818;stroke-width:1.0;"/><path d="M337.3496,346.875 Q337.5059,346.6563 337.6934,346.5469 Q337.8809,346.4375 338.0996,346.4375 Q338.4746,346.4375 338.709,346.7031 Q338.9434,346.9531 338.9434,347.5625 L338.9434,349.0156 Q338.9434,349.625 338.709,349.8906 Q338.4746,350.1563 338.0996,350.1563 Q337.7559,350.1563 337.5527,349.9531 Q337.3496,349.7656 337.2402,349.25 Q337.1934,348.8906 337.0059,348.7031 Q336.6777,348.3281 336.0684,348.1094 Q335.459,347.8906 334.834,347.8906 Q334.0684,347.8906 333.4277,348.2188 Q332.8027,348.5469 332.3027,349.2969 Q331.8184,350.0469 331.8184,351.0781 L331.8184,352.1719 Q331.8184,353.4063 332.709,354.2344 Q333.5996,355.0469 335.1934,355.0469 Q336.1309,355.0469 336.7871,354.7969 Q337.1777,354.6406 337.5996,354.2031 Q337.8652,353.9375 338.0059,353.8594 Q338.1621,353.7813 338.3652,353.7813 Q338.6934,353.7813 338.9434,354.0469 Q339.209,354.2969 339.209,354.6406 Q339.209,354.9844 338.8652,355.3906 Q338.3652,355.9688 337.5684,356.2969 Q336.4902,356.75 335.1934,356.75 Q333.6777,356.75 332.4746,356.125 Q331.4902,355.625 330.8027,354.5625 Q330.1152,353.4844 330.1152,352.2031 L330.1152,351.0469 Q330.1152,349.7188 330.7246,348.5781 Q331.3496,347.4219 332.4434,346.8125 Q333.5371,346.1875 334.7715,346.1875 Q335.5059,346.1875 336.1465,346.3594 Q336.8027,346.5156 337.3496,346.875 Z " fill="#000000"/><text fill="#000000" font-family="sans-serif" font-size="14" lengthAdjust="spacing" textLength="153.3164" x="355.084" y="356.7969">MapboxRoutingManager</text><line style="stroke:#181818;stroke-width:0.5;" x1="175.5" x2="655.4844" y1="367" y2="367"/><line style="stroke:#181818;stroke-width:0.5;" x1="175.5" x2="655.4844" y1="375" y2="375"/><ellipse cx="185.5" cy="389.8105" fill="#84BE84" rx="3" ry="3" style="stroke:#038048;stroke-width:1.0;"/><text fill="#000000" font-family="sans-serif" font-size="14" lengthAdjust="spacing" textLength="455.9844" x="194.5" y="394.1074">getDirections(origin: String, waypoints: String[], destination: String): String</text><ellipse cx="185.5" cy="408.4316" fill="#84BE84" rx="3" ry="3" style="stroke:#038048;stroke-width:1.0;"/><text fill="#000000" font-family="sans-serif" font-size="14" lengthAdjust="spacing" textLength="121.3926" x="194.5" y="412.7285">getRouting(): String</text><ellipse cx="185.5" cy="427.0527" fill="#84BE84" rx="3" ry="3" style="stroke:#038048;stroke-width:1.0;"/><text fill="#000000" font-family="sans-serif" font-size="14" lengthAdjust="spacing" textLength="117.5029" x="194.5" y="431.3496">nextRouting(): void</text></g><!--class MapboxRoutingState--><g id="elem_MapboxRoutingState"><rect codeLine="20" fill="#F1F1F1" height="85.2422" id="MapboxRoutingState" rx="2.5" ry="2.5" style="stroke:#181818;stroke-width:0.5;" width="248.5713" x="291" y="499"/><ellipse cx="345.6602" cy="515" fill="#B4A7E5" rx="11" ry="11" style="stroke:#181818;stroke-width:1.0;"/><path d="M346.6133,511.6406 L346.6133,518.2969 L348.332,518.2969 Q348.9414,518.2969 349.207,518.5313 Q349.4727,518.7656 349.4727,519.1563 Q349.4727,519.5313 349.207,519.7656 Q348.9414,520 348.332,520 L343.1914,520 Q342.582,520 342.3164,519.7656 Q342.0508,519.5313 342.0508,519.1406 Q342.0508,518.7656 342.3164,518.5313 Q342.582,518.2969 343.1914,518.2969 L344.9102,518.2969 L344.9102,511.6406 L343.1914,511.6406 Q342.582,511.6406 342.3164,511.4063 Q342.0508,511.1719 342.0508,510.7813 Q342.0508,510.4063 342.3164,510.1719 Q342.582,509.9375 343.1914,509.9375 L348.332,509.9375 Q348.9414,509.9375 349.207,510.1719 Q349.4727,510.4063 349.4727,510.7813 Q349.4727,511.1719 349.207,511.4063 Q348.9414,511.6406 348.332,511.6406 L346.6133,511.6406 Z " fill="#000000"/><text fill="#000000" font-family="sans-serif" font-size="14" font-style="italic" lengthAdjust="spacing" textLength="130.751" x="366.1602" y="520.7969">MapboxRoutingState</text><line style="stroke:#181818;stroke-width:0.5;" x1="292" x2="538.5713" y1="531" y2="531"/><line style="stroke:#181818;stroke-width:0.5;" x1="292" x2="538.5713" y1="539" y2="539"/><ellipse cx="302" cy="553.8105" fill="#84BE84" rx="3" ry="3" style="stroke:#038048;stroke-width:1.0;"/><text fill="#000000" font-family="sans-serif" font-size="14" lengthAdjust="spacing" textLength="121.3926" x="311" y="558.1074">getRouting(): String</text><ellipse cx="302" cy="572.4316" fill="#84BE84" rx="3" ry="3" style="stroke:#038048;stroke-width:1.0;"/><text fill="#000000" font-family="sans-serif" font-size="14" lengthAdjust="spacing" textLength="222.5713" x="311" y="576.7285">nextRouting(): MapboxRoutingState</text></g><!--class MapboxRoutingDrivingState--><g id="elem_MapboxRoutingDrivingState"><rect codeLine="25" fill="#F1F1F1" height="85.2422" id="MapboxRoutingDrivingState" rx="2.5" ry="2.5" style="stroke:#181818;stroke-width:0.5;" width="248.5713" x="7" y="644"/><ellipse cx="41.0147" cy="660" fill="#ADD1B2" rx="11" ry="11" style="stroke:#181818;stroke-width:1.0;"/><path d="M43.7803,655.875 Q43.9366,655.6563 44.1241,655.5469 Q44.3116,655.4375 44.5303,655.4375 Q44.9053,655.4375 45.1397,655.7031 Q45.3741,655.9531 45.3741,656.5625 L45.3741,658.0156 Q45.3741,658.625 45.1397,658.8906 Q44.9053,659.1563 44.5303,659.1563 Q44.1866,659.1563 43.9834,658.9531 Q43.7803,658.7656 43.6709,658.25 Q43.6241,657.8906 43.4366,657.7031 Q43.1084,657.3281 42.4991,657.1094 Q41.8897,656.8906 41.2647,656.8906 Q40.4991,656.8906 39.8584,657.2188 Q39.2334,657.5469 38.7334,658.2969 Q38.2491,659.0469 38.2491,660.0781 L38.2491,661.1719 Q38.2491,662.4063 39.1397,663.2344 Q40.0303,664.0469 41.6241,664.0469 Q42.5616,664.0469 43.2178,663.7969 Q43.6084,663.6406 44.0303,663.2031 Q44.2959,662.9375 44.4366,662.8594 Q44.5928,662.7813 44.7959,662.7813 Q45.1241,662.7813 45.3741,663.0469 Q45.6397,663.2969 45.6397,663.6406 Q45.6397,663.9844 45.2959,664.3906 Q44.7959,664.9688 43.9991,665.2969 Q42.9209,665.75 41.6241,665.75 Q40.1084,665.75 38.9053,665.125 Q37.9209,664.625 37.2334,663.5625 Q36.5459,662.4844 36.5459,661.2031 L36.5459,660.0469 Q36.5459,658.7188 37.1553,657.5781 Q37.7803,656.4219 38.8741,655.8125 Q39.9678,655.1875 41.2022,655.1875 Q41.9366,655.1875 42.5772,655.3594 Q43.2334,655.5156 43.7803,655.875 Z " fill="#000000"/><text fill="#000000" font-family="sans-serif" font-size="14" lengthAdjust="spacing" textLength="174.3164" x="59.2402" y="665.7969">MapboxRoutingDrivingState</text><line style="stroke:#181818;stroke-width:0.5;" x1="8" x2="254.5713" y1="676" y2="676"/><line style="stroke:#181818;stroke-width:0.5;" x1="8" x2="254.5713" y1="684" y2="684"/><ellipse cx="18" cy="698.8105" fill="#84BE84" rx="3" ry="3" style="stroke:#038048;stroke-width:1.0;"/><text fill="#000000" font-family="sans-serif" font-size="14" lengthAdjust="spacing" textLength="121.3926" x="27" y="703.1074">getRouting(): String</text><ellipse cx="18" cy="717.4316" fill="#84BE84" rx="3" ry="3" style="stroke:#038048;stroke-width:1.0;"/><text fill="#000000" font-family="sans-serif" font-size="14" lengthAdjust="spacing" textLength="222.5713" x="27" y="721.7285">nextRouting(): MapboxRoutingState</text></g><!--class MapboxRoutingCyclingState--><g id="elem_MapboxRoutingCyclingState"><rect codeLine="30" fill="#F1F1F1" height="85.2422" id="MapboxRoutingCyclingState" rx="2.5" ry="2.5" style="stroke:#181818;stroke-width:0.5;" width="248.5713" x="291" y="644"/><ellipse cx="323.9626" cy="660" fill="#ADD1B2" rx="11" ry="11" style="stroke:#181818;stroke-width:1.0;"/><path d="M326.7283,655.875 Q326.8845,655.6563 327.072,655.5469 Q327.2595,655.4375 327.4783,655.4375 Q327.8533,655.4375 328.0876,655.7031 Q328.322,655.9531 328.322,656.5625 L328.322,658.0156 Q328.322,658.625 328.0876,658.8906 Q327.8533,659.1563 327.4783,659.1563 Q327.1345,659.1563 326.9314,658.9531 Q326.7283,658.7656 326.6189,658.25 Q326.572,657.8906 326.3845,657.7031 Q326.0564,657.3281 325.447,657.1094 Q324.8376,656.8906 324.2126,656.8906 Q323.447,656.8906 322.8064,657.2188 Q322.1814,657.5469 321.6814,658.2969 Q321.197,659.0469 321.197,660.0781 L321.197,661.1719 Q321.197,662.4063 322.0876,663.2344 Q322.9783,664.0469 324.572,664.0469 Q325.5095,664.0469 326.1658,663.7969 Q326.5564,663.6406 326.9783,663.2031 Q327.2439,662.9375 327.3845,662.8594 Q327.5408,662.7813 327.7439,662.7813 Q328.072,662.7813 328.322,663.0469 Q328.5876,663.2969 328.5876,663.6406 Q328.5876,663.9844 328.2439,664.3906 Q327.7439,664.9688 326.947,665.2969 Q325.8689,665.75 324.572,665.75 Q323.0564,665.75 321.8533,665.125 Q320.8689,664.625 320.1814,663.5625 Q319.4939,662.4844 319.4939,661.2031 L319.4939,660.0469 Q319.4939,658.7188 320.1033,657.5781 Q320.7283,656.4219 321.822,655.8125 Q322.9158,655.1875 324.1501,655.1875 Q324.8845,655.1875 325.5251,655.3594 Q326.1814,655.5156 326.7283,655.875 Z " fill="#000000"/><text fill="#000000" font-family="sans-serif" font-size="14" lengthAdjust="spacing" textLength="176.6543" x="341.9543" y="665.7969">MapboxRoutingCyclingState</text><line style="stroke:#181818;stroke-width:0.5;" x1="292" x2="538.5713" y1="676" y2="676"/><line style="stroke:#181818;stroke-width:0.5;" x1="292" x2="538.5713" y1="684" y2="684"/><ellipse cx="302" cy="698.8105" fill="#84BE84" rx="3" ry="3" style="stroke:#038048;stroke-width:1.0;"/><text fill="#000000" font-family="sans-serif" font-size="14" lengthAdjust="spacing" textLength="121.3926" x="311" y="703.1074">getRouting(): String</text><ellipse cx="302" cy="717.4316" fill="#84BE84" rx="3" ry="3" style="stroke:#038048;stroke-width:1.0;"/><text fill="#000000" font-family="sans-serif" font-size="14" lengthAdjust="spacing" textLength="222.5713" x="311" y="721.7285">nextRouting(): MapboxRoutingState</text></g><!--class MapboxRoutingWalkingState--><g id="elem_MapboxRoutingWalkingState"><rect codeLine="35" fill="#F1F1F1" height="85.2422" id="MapboxRoutingWalkingState" rx="2.5" ry="2.5" style="stroke:#181818;stroke-width:0.5;" width="248.5713" x="575" y="644"/><ellipse cx="606.2123" cy="660" fill="#ADD1B2" rx="11" ry="11" style="stroke:#181818;stroke-width:1.0;"/><path d="M608.9779,655.875 Q609.1342,655.6563 609.3217,655.5469 Q609.5092,655.4375 609.7279,655.4375 Q610.1029,655.4375 610.3373,655.7031 Q610.5717,655.9531 610.5717,656.5625 L610.5717,658.0156 Q610.5717,658.625 610.3373,658.8906 Q610.1029,659.1563 609.7279,659.1563 Q609.3842,659.1563 609.1811,658.9531 Q608.9779,658.7656 608.8686,658.25 Q608.8217,657.8906 608.6342,657.7031 Q608.3061,657.3281 607.6967,657.1094 Q607.0873,656.8906 606.4623,656.8906 Q605.6967,656.8906 605.0561,657.2188 Q604.4311,657.5469 603.9311,658.2969 Q603.4467,659.0469 603.4467,660.0781 L603.4467,661.1719 Q603.4467,662.4063 604.3373,663.2344 Q605.2279,664.0469 606.8217,664.0469 Q607.7592,664.0469 608.4154,663.7969 Q608.8061,663.6406 609.2279,663.2031 Q609.4936,662.9375 609.6342,662.8594 Q609.7904,662.7813 609.9936,662.7813 Q610.3217,662.7813 610.5717,663.0469 Q610.8373,663.2969 610.8373,663.6406 Q610.8373,663.9844 610.4936,664.3906 Q609.9936,664.9688 609.1967,665.2969 Q608.1186,665.75 606.8217,665.75 Q605.3061,665.75 604.1029,665.125 Q603.1186,664.625 602.4311,663.5625 Q601.7436,662.4844 601.7436,661.2031 L601.7436,660.0469 Q601.7436,658.7188 602.3529,657.5781 Q602.9779,656.4219 604.0717,655.8125 Q605.1654,655.1875 606.3998,655.1875 Q607.1342,655.1875 607.7748,655.3594 Q608.4311,655.5156 608.9779,655.875 Z " fill="#000000"/><text fill="#000000" font-family="sans-serif" font-size="14" lengthAdjust="spacing" textLength="180.5439" x="623.815" y="665.7969">MapboxRoutingWalkingState</text><line style="stroke:#181818;stroke-width:0.5;" x1="576" x2="822.5713" y1="676" y2="676"/><line style="stroke:#181818;stroke-width:0.5;" x1="576" x2="822.5713" y1="684" y2="684"/><ellipse cx="586" cy="698.8105" fill="#84BE84" rx="3" ry="3" style="stroke:#038048;stroke-width:1.0;"/><text fill="#000000" font-family="sans-serif" font-size="14" lengthAdjust="spacing" textLength="121.3926" x="595" y="703.1074">getRouting(): String</text><ellipse cx="586" cy="717.4316" fill="#84BE84" rx="3" ry="3" style="stroke:#038048;stroke-width:1.0;"/><text fill="#000000" font-family="sans-serif" font-size="14" lengthAdjust="spacing" textLength="222.5713" x="595" y="721.7285">nextRouting(): MapboxRoutingState</text></g><!--link MapboxController to MapboxService--><g id="link_MapboxController_MapboxService"><path codeLine="40" d="M415.5,111.26 C415.5,130.26 415.5,145.8 415.5,164.8 " fill="none" id="MapboxController-to-MapboxService" style="stroke:#181818;stroke-width:1.0;stroke-dasharray:7.0,7.0;"/><polygon fill="#181818" points="415.5,170.8,419.5,161.8,415.5,165.8,411.5,161.8,415.5,170.8" style="stroke:#181818;stroke-width:1.0;"/><text fill="#000000" font-family="sans-serif" font-size="13" lengthAdjust="spacing" textLength="97.5381" x="312.6228" y="132.7195">- mapboxService</text></g><!--link MapboxService to MapboxRoutingManager--><g id="link_MapboxService_MapboxRoutingManager"><path codeLine="41" d="M415.5,275.26 C415.5,294.26 415.5,309.8 415.5,328.8 " fill="none" id="MapboxService-to-MapboxRoutingManager" style="stroke:#181818;stroke-width:1.0;stroke-dasharray:7.0,7.0;"/><polygon fill="#181818" points="415.5,334.8,419.5,325.8,415.5,329.8,411.5,325.8,415.5,334.8" style="stroke:#181818;stroke-width:1.0;"/><text fill="#000000" font-family="sans-serif" font-size="13" lengthAdjust="spacing" textLength="150.3062" x="256.379" y="296.7195">- mapboxRoutingManager</text></g><!--link MapboxRoutingManager to MapboxRoutingState--><g id="link_MapboxRoutingManager_MapboxRoutingState"><path codeLine="42" d="M415.5,439.2 C415.5,458.59 415.5,474.4 415.5,492.8 " fill="none" id="MapboxRoutingManager-to-MapboxRoutingState" style="stroke:#181818;stroke-width:1.0;stroke-dasharray:7.0,7.0;"/><polygon fill="#181818" points="415.5,498.8,419.5,489.8,415.5,493.8,411.5,489.8,415.5,498.8" style="stroke:#181818;stroke-width:1.0;"/><text fill="#000000" font-family="sans-serif" font-size="13" lengthAdjust="spacing" textLength="47.6899" x="365.5343" y="461.0329">- routing</text></g><!--reverse link MapboxRoutingState to MapboxRoutingDrivingState--><g id="link_MapboxRoutingState_MapboxRoutingDrivingState"><path codeLine="43" d="M316.8945,592.148 C279.5545,610.958 251.6,625.03 214.23,643.84 " fill="none" id="MapboxRoutingState-backto-MapboxRoutingDrivingState" style="stroke:#181818;stroke-width:1.0;"/><polygon fill="none" points="332.97,584.05,314.1951,586.7895,319.5938,597.5065,332.97,584.05" style="stroke:#181818;stroke-width:1.0;"/></g><!--reverse link MapboxRoutingState to MapboxRoutingCyclingState--><g id="link_MapboxRoutingState_MapboxRoutingCyclingState"><path codeLine="44" d="M415.5,602.25 C415.5,621.04 415.5,625.18 415.5,643.95 " fill="none" id="MapboxRoutingState-backto-MapboxRoutingCyclingState" style="stroke:#181818;stroke-width:1.0;"/><polygon fill="none" points="415.5,584.25,409.5,602.25,421.5,602.25,415.5,584.25" style="stroke:#181818;stroke-width:1.0;"/></g><!--reverse link MapboxRoutingState to MapboxRoutingWalkingState--><g id="link_MapboxRoutingState_MapboxRoutingWalkingState"><path codeLine="45" d="M514.1055,592.148 C551.4455,610.958 579.4,625.03 616.77,643.84 " fill="none" id="MapboxRoutingState-backto-MapboxRoutingWalkingState" style="stroke:#181818;stroke-width:1.0;"/><polygon fill="none" points="498.03,584.05,511.4062,597.5065,516.8049,586.7895,498.03,584.05" style="stroke:#181818;stroke-width:1.0;"/></g><!--SRC=[pLEnRi8m4Dtz5IScgX8-05LTafMb6JgW3eTnhLDT6vrD2gBzTuB0bTqaKeOYiKNt_EuzlNkH1hs79MxNRbyw6zWPenYE0k0Hj0eLiPA1dFLJnwJ9Bg0EJ5RFu0iFMqSs-3XQlSrWetmWYsT673_4ZxZpnUtQDtgQ0rRjUv0V8MHYiLRSa5HtuAznjFdhxWelqQA-Yn2ZoLP0yJksmML6wu0XoNBKokw2WHGgfkRM6kL1cbjhlABv-5UDpiysAU0pRVS4vlFdlF0Yh_yl8szSIimHqLlGTWrV9ZtCYz-UlZnz5yNmgSSnqiEDOwHd42S0]--></g></svg>