<svg xmlns="http://www.w3.org/2000/svg" xmlns:xlink="http://www.w3.org/1999/xlink" contentStyleType="text/css" height="529px" preserveAspectRatio="none" style="width:1498px;height:529px;background:#FFFFFF;" version="1.1" viewBox="0 0 1498 529" width="1498px" zoomAndPan="magnify"><defs/><g><!--class Coordinate--><g id="elem_Coordinate"><rect codeLine="3" fill="#F1F1F1" height="97.8242" id="Coordinate" rx="2.5" ry="2.5" style="stroke:#181818;stroke-width:0.5;" width="132.6475" x="514.14" y="425"/><ellipse cx="543.6112" cy="447.291" fill="#ADD1B2" rx="11" ry="11" style="stroke:#181818;stroke-width:1.0;"/><path d="M546.3768,443.166 Q546.5331,442.9473 546.7206,442.8379 Q546.9081,442.7285 547.1268,442.7285 Q547.5018,442.7285 547.7362,442.9941 Q547.9706,443.2441 547.9706,443.8535 L547.9706,445.3066 Q547.9706,445.916 547.7362,446.1816 Q547.5018,446.4473 547.1268,446.4473 Q546.7831,446.4473 546.5799,446.2441 Q546.3768,446.0566 546.2674,445.541 Q546.2206,445.1816 546.0331,444.9941 Q545.7049,444.6191 545.0956,444.4004 Q544.4862,444.1816 543.8612,444.1816 Q543.0956,444.1816 542.4549,444.5098 Q541.8299,444.8379 541.3299,445.5879 Q540.8456,446.3379 540.8456,447.3691 L540.8456,448.4629 Q540.8456,449.6973 541.7362,450.5254 Q542.6268,451.3379 544.2206,451.3379 Q545.1581,451.3379 545.8143,451.0879 Q546.2049,450.9316 546.6268,450.4941 Q546.8924,450.2285 547.0331,450.1504 Q547.1893,450.0723 547.3924,450.0723 Q547.7206,450.0723 547.9706,450.3379 Q548.2362,450.5879 548.2362,450.9316 Q548.2362,451.2754 547.8924,451.6816 Q547.3924,452.2598 546.5956,452.5879 Q545.5174,453.041 544.2206,453.041 Q542.7049,453.041 541.5018,452.416 Q540.5174,451.916 539.8299,450.8535 Q539.1424,449.7754 539.1424,448.4941 L539.1424,447.3379 Q539.1424,446.0098 539.7518,444.8691 Q540.3768,443.7129 541.4706,443.1035 Q542.5643,442.4785 543.7987,442.4785 Q544.5331,442.4785 545.1737,442.6504 Q545.8299,442.8066 546.3768,443.166 Z " fill="#000000"/><text fill="#000000" font-family="sans-serif" font-size="12" font-style="italic" lengthAdjust="spacing" textLength="47.3613" x="571.391" y="442.9492">&#171;record&#187;</text><text fill="#000000" font-family="sans-serif" font-size="14" lengthAdjust="spacing" textLength="68.4893" x="560.827" y="461.0684">Coordinate</text><line style="stroke:#181818;stroke-width:0.5;" x1="515.14" x2="645.7875" y1="469.582" y2="469.582"/><rect fill="none" height="6" style="stroke:#C82930;stroke-width:1.0;" width="6" x="522.14" y="481.3926"/><text fill="#000000" font-family="sans-serif" font-size="14" lengthAdjust="spacing" textLength="94.9648" x="534.14" y="488.6895">latitude: double</text><rect fill="none" height="6" style="stroke:#C82930;stroke-width:1.0;" width="6" x="522.14" y="500.0137"/><text fill="#000000" font-family="sans-serif" font-size="14" lengthAdjust="spacing" textLength="106.6475" x="534.14" y="507.3105">longitude: double</text><line style="stroke:#181818;stroke-width:0.5;" x1="515.14" x2="645.7875" y1="514.8242" y2="514.8242"/></g><!--class RouteContext--><g id="elem_RouteContext"><rect codeLine="8" fill="#F1F1F1" height="103.8633" id="RouteContext" rx="2.5" ry="2.5" style="stroke:#181818;stroke-width:0.5;" width="429.1289" x="366.14" y="7"/><ellipse cx="533.6512" cy="23" fill="#ADD1B2" rx="11" ry="11" style="stroke:#181818;stroke-width:1.0;"/><path d="M536.4169,18.875 Q536.5731,18.6563 536.7606,18.5469 Q536.9481,18.4375 537.1669,18.4375 Q537.5419,18.4375 537.7762,18.7031 Q538.0106,18.9531 538.0106,19.5625 L538.0106,21.0156 Q538.0106,21.625 537.7762,21.8906 Q537.5419,22.1563 537.1669,22.1563 Q536.8231,22.1563 536.62,21.9531 Q536.4169,21.7656 536.3075,21.25 Q536.2606,20.8906 536.0731,20.7031 Q535.745,20.3281 535.1356,20.1094 Q534.5262,19.8906 533.9012,19.8906 Q533.1356,19.8906 532.495,20.2188 Q531.87,20.5469 531.37,21.2969 Q530.8856,22.0469 530.8856,23.0781 L530.8856,24.1719 Q530.8856,25.4063 531.7762,26.2344 Q532.6669,27.0469 534.2606,27.0469 Q535.1981,27.0469 535.8544,26.7969 Q536.245,26.6406 536.6669,26.2031 Q536.9325,25.9375 537.0731,25.8594 Q537.2294,25.7813 537.4325,25.7813 Q537.7606,25.7813 538.0106,26.0469 Q538.2762,26.2969 538.2762,26.6406 Q538.2762,26.9844 537.9325,27.3906 Q537.4325,27.9688 536.6356,28.2969 Q535.5575,28.75 534.2606,28.75 Q532.745,28.75 531.5419,28.125 Q530.5575,27.625 529.87,26.5625 Q529.1825,25.4844 529.1825,24.2031 L529.1825,23.0469 Q529.1825,21.7188 529.7919,20.5781 Q530.4169,19.4219 531.5106,18.8125 Q532.6044,18.1875 533.8387,18.1875 Q534.5731,18.1875 535.2137,18.3594 Q535.87,18.5156 536.4169,18.875 Z " fill="#000000"/><text fill="#000000" font-family="sans-serif" font-size="14" lengthAdjust="spacing" textLength="85.6064" x="554.1512" y="28.7969">RouteContext</text><line style="stroke:#181818;stroke-width:0.5;" x1="367.14" x2="794.2689" y1="39" y2="39"/><rect fill="none" height="6" style="stroke:#C82930;stroke-width:1.0;" width="6" x="374.14" y="50.8105"/><text fill="#000000" font-family="sans-serif" font-size="14" lengthAdjust="spacing" textLength="154.0889" x="386.14" y="58.1074">currentState: RouteState</text><line style="stroke:#181818;stroke-width:0.5;" x1="367.14" x2="794.2689" y1="65.6211" y2="65.6211"/><ellipse cx="377.14" cy="80.4316" fill="#84BE84" rx="3" ry="3" style="stroke:#038048;stroke-width:1.0;"/><text fill="#000000" font-family="sans-serif" font-size="14" lengthAdjust="spacing" textLength="230.3506" x="386.14" y="84.7285">setState(newState: RouteState): void</text><ellipse cx="377.14" cy="99.0527" fill="#84BE84" rx="3" ry="3" style="stroke:#038048;stroke-width:1.0;"/><text fill="#000000" font-family="sans-serif" font-size="14" lengthAdjust="spacing" textLength="403.1289" x="386.14" y="103.3496">calculateRoute(coordinates: List&lt;Coordinate&gt;): List&lt;Coordinate&gt;</text></g><!--class RouteState--><g id="elem_RouteState"><rect codeLine="14" fill="#F1F1F1" height="66.6211" id="RouteState" rx="2.5" ry="2.5" style="stroke:#181818;stroke-width:0.5;" width="429.1289" x="366.14" y="171"/><ellipse cx="541.4305" cy="187" fill="#B4A7E5" rx="11" ry="11" style="stroke:#181818;stroke-width:1.0;"/><path d="M542.3837,183.6406 L542.3837,190.2969 L544.1024,190.2969 Q544.7118,190.2969 544.9774,190.5313 Q545.243,190.7656 545.243,191.1563 Q545.243,191.5313 544.9774,191.7656 Q544.7118,192 544.1024,192 L538.9618,192 Q538.3524,192 538.0868,191.7656 Q537.8212,191.5313 537.8212,191.1406 Q537.8212,190.7656 538.0868,190.5313 Q538.3524,190.2969 538.9618,190.2969 L540.6805,190.2969 L540.6805,183.6406 L538.9618,183.6406 Q538.3524,183.6406 538.0868,183.4063 Q537.8212,183.1719 537.8212,182.7813 Q537.8212,182.4063 538.0868,182.1719 Q538.3524,181.9375 538.9618,181.9375 L544.1024,181.9375 Q544.7118,181.9375 544.9774,182.1719 Q545.243,182.4063 545.243,182.7813 Q545.243,183.1719 544.9774,183.4063 Q544.7118,183.6406 544.1024,183.6406 L542.3837,183.6406 Z " fill="#000000"/><text fill="#000000" font-family="sans-serif" font-size="14" font-style="italic" lengthAdjust="spacing" textLength="70.0479" x="561.9305" y="192.7969">RouteState</text><line style="stroke:#181818;stroke-width:0.5;" x1="367.14" x2="794.2689" y1="203" y2="203"/><line style="stroke:#181818;stroke-width:0.5;" x1="367.14" x2="794.2689" y1="211" y2="211"/><ellipse cx="377.14" cy="225.8105" fill="#84BE84" rx="3" ry="3" style="stroke:#038048;stroke-width:1.0;"/><text fill="#000000" font-family="sans-serif" font-size="14" lengthAdjust="spacing" textLength="403.1289" x="386.14" y="230.1074">calculateRoute(coordinates: List&lt;Coordinate&gt;): List&lt;Coordinate&gt;</text></g><!--class ShortestDistanceState--><g id="elem_ShortestDistanceState"><rect codeLine="18" fill="#F1F1F1" height="66.6211" id="ShortestDistanceState" rx="2.5" ry="2.5" style="stroke:#181818;stroke-width:0.5;" width="429.1289" x="134.14" y="298"/><ellipse cx="274.8065" cy="314" fill="#ADD1B2" rx="11" ry="11" style="stroke:#181818;stroke-width:1.0;"/><path d="M277.5721,309.875 Q277.7284,309.6563 277.9159,309.5469 Q278.1034,309.4375 278.3221,309.4375 Q278.6971,309.4375 278.9315,309.7031 Q279.1659,309.9531 279.1659,310.5625 L279.1659,312.0156 Q279.1659,312.625 278.9315,312.8906 Q278.6971,313.1563 278.3221,313.1563 Q277.9784,313.1563 277.7753,312.9531 Q277.5721,312.7656 277.4628,312.25 Q277.4159,311.8906 277.2284,311.7031 Q276.9003,311.3281 276.2909,311.1094 Q275.6815,310.8906 275.0565,310.8906 Q274.2909,310.8906 273.6503,311.2188 Q273.0253,311.5469 272.5253,312.2969 Q272.0409,313.0469 272.0409,314.0781 L272.0409,315.1719 Q272.0409,316.4063 272.9315,317.2344 Q273.8221,318.0469 275.4159,318.0469 Q276.3534,318.0469 277.0096,317.7969 Q277.4003,317.6406 277.8221,317.2031 Q278.0878,316.9375 278.2284,316.8594 Q278.3846,316.7813 278.5878,316.7813 Q278.9159,316.7813 279.1659,317.0469 Q279.4315,317.2969 279.4315,317.6406 Q279.4315,317.9844 279.0878,318.3906 Q278.5878,318.9688 277.7909,319.2969 Q276.7128,319.75 275.4159,319.75 Q273.9003,319.75 272.6971,319.125 Q271.7128,318.625 271.0253,317.5625 Q270.3378,316.4844 270.3378,315.2031 L270.3378,314.0469 Q270.3378,312.7188 270.9471,311.5781 Q271.5721,310.4219 272.6659,309.8125 Q273.7596,309.1875 274.994,309.1875 Q275.7284,309.1875 276.369,309.3594 Q277.0253,309.5156 277.5721,309.875 Z " fill="#000000"/><text fill="#000000" font-family="sans-serif" font-size="14" lengthAdjust="spacing" textLength="139.2959" x="295.3065" y="319.7969">ShortestDistanceState</text><line style="stroke:#181818;stroke-width:0.5;" x1="135.14" x2="562.2689" y1="330" y2="330"/><line style="stroke:#181818;stroke-width:0.5;" x1="135.14" x2="562.2689" y1="338" y2="338"/><ellipse cx="145.14" cy="352.8105" fill="#84BE84" rx="3" ry="3" style="stroke:#038048;stroke-width:1.0;"/><text fill="#000000" font-family="sans-serif" font-size="14" lengthAdjust="spacing" textLength="403.1289" x="154.14" y="357.1074">calculateRoute(coordinates: List&lt;Coordinate&gt;): List&lt;Coordinate&gt;</text></g><!--class FastestTimeState--><g id="elem_FastestTimeState"><rect codeLine="22" fill="#F1F1F1" height="66.6211" id="FastestTimeState" rx="2.5" ry="2.5" style="stroke:#181818;stroke-width:0.5;" width="429.1289" x="598.14" y="298"/><ellipse cx="753.6029" cy="314" fill="#ADD1B2" rx="11" ry="11" style="stroke:#181818;stroke-width:1.0;"/><path d="M756.3685,309.875 Q756.5248,309.6563 756.7123,309.5469 Q756.8998,309.4375 757.1185,309.4375 Q757.4935,309.4375 757.7279,309.7031 Q757.9623,309.9531 757.9623,310.5625 L757.9623,312.0156 Q757.9623,312.625 757.7279,312.8906 Q757.4935,313.1563 757.1185,313.1563 Q756.7748,313.1563 756.5716,312.9531 Q756.3685,312.7656 756.2591,312.25 Q756.2123,311.8906 756.0248,311.7031 Q755.6966,311.3281 755.0873,311.1094 Q754.4779,310.8906 753.8529,310.8906 Q753.0873,310.8906 752.4466,311.2188 Q751.8216,311.5469 751.3216,312.2969 Q750.8373,313.0469 750.8373,314.0781 L750.8373,315.1719 Q750.8373,316.4063 751.7279,317.2344 Q752.6185,318.0469 754.2123,318.0469 Q755.1498,318.0469 755.806,317.7969 Q756.1966,317.6406 756.6185,317.2031 Q756.8841,316.9375 757.0248,316.8594 Q757.181,316.7813 757.3841,316.7813 Q757.7123,316.7813 757.9623,317.0469 Q758.2279,317.2969 758.2279,317.6406 Q758.2279,317.9844 757.8841,318.3906 Q757.3841,318.9688 756.5873,319.2969 Q755.5091,319.75 754.2123,319.75 Q752.6966,319.75 751.4935,319.125 Q750.5091,318.625 749.8216,317.5625 Q749.1341,316.4844 749.1341,315.2031 L749.1341,314.0469 Q749.1341,312.7188 749.7435,311.5781 Q750.3685,310.4219 751.4623,309.8125 Q752.556,309.1875 753.7904,309.1875 Q754.5248,309.1875 755.1654,309.3594 Q755.8216,309.5156 756.3685,309.875 Z " fill="#000000"/><text fill="#000000" font-family="sans-serif" font-size="14" lengthAdjust="spacing" textLength="109.7031" x="774.1029" y="319.7969">FastestTimeState</text><line style="stroke:#181818;stroke-width:0.5;" x1="599.14" x2="1026.2689" y1="330" y2="330"/><line style="stroke:#181818;stroke-width:0.5;" x1="599.14" x2="1026.2689" y1="338" y2="338"/><ellipse cx="609.14" cy="352.8105" fill="#84BE84" rx="3" ry="3" style="stroke:#038048;stroke-width:1.0;"/><text fill="#000000" font-family="sans-serif" font-size="14" lengthAdjust="spacing" textLength="403.1289" x="618.14" y="357.1074">calculateRoute(coordinates: List&lt;Coordinate&gt;): List&lt;Coordinate&gt;</text></g><!--class CheapestCostState--><g id="elem_CheapestCostState"><rect codeLine="26" fill="#F1F1F1" height="66.6211" id="CheapestCostState" rx="2.5" ry="2.5" style="stroke:#181818;stroke-width:0.5;" width="429.1289" x="1062.14" y="298"/><ellipse cx="1211.7513" cy="314" fill="#ADD1B2" rx="11" ry="11" style="stroke:#181818;stroke-width:1.0;"/><path d="M1214.517,309.875 Q1214.6732,309.6563 1214.8607,309.5469 Q1215.0482,309.4375 1215.267,309.4375 Q1215.642,309.4375 1215.8763,309.7031 Q1216.1107,309.9531 1216.1107,310.5625 L1216.1107,312.0156 Q1216.1107,312.625 1215.8763,312.8906 Q1215.642,313.1563 1215.267,313.1563 Q1214.9232,313.1563 1214.7201,312.9531 Q1214.517,312.7656 1214.4076,312.25 Q1214.3607,311.8906 1214.1732,311.7031 Q1213.8451,311.3281 1213.2357,311.1094 Q1212.6263,310.8906 1212.0013,310.8906 Q1211.2357,310.8906 1210.5951,311.2188 Q1209.9701,311.5469 1209.4701,312.2969 Q1208.9857,313.0469 1208.9857,314.0781 L1208.9857,315.1719 Q1208.9857,316.4063 1209.8763,317.2344 Q1210.767,318.0469 1212.3607,318.0469 Q1213.2982,318.0469 1213.9545,317.7969 Q1214.3451,317.6406 1214.767,317.2031 Q1215.0326,316.9375 1215.1732,316.8594 Q1215.3295,316.7813 1215.5326,316.7813 Q1215.8607,316.7813 1216.1107,317.0469 Q1216.3763,317.2969 1216.3763,317.6406 Q1216.3763,317.9844 1216.0326,318.3906 Q1215.5326,318.9688 1214.7357,319.2969 Q1213.6576,319.75 1212.3607,319.75 Q1210.8451,319.75 1209.642,319.125 Q1208.6576,318.625 1207.9701,317.5625 Q1207.2826,316.4844 1207.2826,315.2031 L1207.2826,314.0469 Q1207.2826,312.7188 1207.892,311.5781 Q1208.517,310.4219 1209.6107,309.8125 Q1210.7045,309.1875 1211.9388,309.1875 Q1212.6732,309.1875 1213.3138,309.3594 Q1213.9701,309.5156 1214.517,309.875 Z " fill="#000000"/><text fill="#000000" font-family="sans-serif" font-size="14" lengthAdjust="spacing" textLength="121.4063" x="1232.2513" y="319.7969">CheapestCostState</text><line style="stroke:#181818;stroke-width:0.5;" x1="1063.14" x2="1490.2689" y1="330" y2="330"/><line style="stroke:#181818;stroke-width:0.5;" x1="1063.14" x2="1490.2689" y1="338" y2="338"/><ellipse cx="1073.14" cy="352.8105" fill="#84BE84" rx="3" ry="3" style="stroke:#038048;stroke-width:1.0;"/><text fill="#000000" font-family="sans-serif" font-size="14" lengthAdjust="spacing" textLength="403.1289" x="1082.14" y="357.1074">calculateRoute(coordinates: List&lt;Coordinate&gt;): List&lt;Coordinate&gt;</text></g><!--reverse link RouteState to ShortestDistanceState--><g id="link_RouteState_ShortestDistanceState"><path codeLine="30" d="M504.4421,246.5549 C470.2021,264.9949 443.34,279.47 409.09,297.93 " fill="none" id="RouteState-backto-ShortestDistanceState" style="stroke:#181818;stroke-width:1.0;"/><polygon fill="none" points="520.29,238.02,501.5971,241.2723,507.2871,251.8375,520.29,238.02" style="stroke:#181818;stroke-width:1.0;"/></g><!--reverse link RouteState to FastestTimeState--><g id="link_RouteState_FastestTimeState"><path codeLine="31" d="M656.8368,246.5568 C691.0668,264.9968 717.94,279.47 752.19,297.93 " fill="none" id="RouteState-backto-FastestTimeState" style="stroke:#181818;stroke-width:1.0;"/><polygon fill="none" points="640.99,238.02,653.9912,251.8391,659.6825,241.2746,640.99,238.02" style="stroke:#181818;stroke-width:1.0;"/></g><!--reverse link RouteState to CheapestCostState--><g id="link_RouteState_CheapestCostState"><path codeLine="32" d="M779.4067,241.2011 C882.2167,259.6611 992.78,279.52 1095.59,297.98 " fill="none" id="RouteState-backto-CheapestCostState" style="stroke:#181818;stroke-width:1.0;"/><polygon fill="none" points="761.69,238.02,778.3463,247.1067,780.467,235.2956,761.69,238.02" style="stroke:#181818;stroke-width:1.0;"/></g><!--link RouteContext to RouteState--><g id="link_RouteContext_RouteState"><path codeLine="33" d="M580.64,111.4 C580.64,131.19 580.64,147.22 580.64,164.77 " fill="none" id="RouteContext-to-RouteState" style="stroke:#181818;stroke-width:1.0;"/><polygon fill="#181818" points="580.64,170.77,584.64,161.77,580.64,165.77,576.64,161.77,580.64,170.77" style="stroke:#181818;stroke-width:1.0;"/></g><!--link RouteState to Coordinate--><g id="link_RouteState_Coordinate"><path codeLine="34" d="M366.06,222.2 C260.59,235.32 149.2,258.31 116.64,298 C6,432.87 355.1964,463.6033 508.1164,470.6633 " fill="none" id="RouteState-to-Coordinate" style="stroke:#181818;stroke-width:1.0;stroke-dasharray:7.0,7.0;"/><polygon fill="#181818" points="514.11,470.94,505.3041,466.5292,509.1153,470.7094,504.9351,474.5207,514.11,470.94" style="stroke:#181818;stroke-width:1.0;"/></g><!--link ShortestDistanceState to Coordinate--><g id="link_ShortestDistanceState_Coordinate"><path codeLine="35" d="M402.45,365.09 C435.64,385.19 473.3575,408.0323 508.7175,429.4423 " fill="none" id="ShortestDistanceState-to-Coordinate" style="stroke:#181818;stroke-width:1.0;stroke-dasharray:7.0,7.0;"/><polygon fill="#181818" points="513.85,432.55,508.223,424.4669,509.5729,429.9603,504.0795,431.3102,513.85,432.55" style="stroke:#181818;stroke-width:1.0;"/></g><!--link FastestTimeState to Coordinate--><g id="link_FastestTimeState_Coordinate"><path codeLine="36" d="M758.83,365.09 C725.63,385.19 687.9225,408.0323 652.5625,429.4423 " fill="none" id="FastestTimeState-to-Coordinate" style="stroke:#181818;stroke-width:1.0;stroke-dasharray:7.0,7.0;"/><polygon fill="#181818" points="647.43,432.55,657.2005,431.3102,651.7071,429.9603,653.057,424.4669,647.43,432.55" style="stroke:#181818;stroke-width:1.0;"/></g><!--link CheapestCostState to Coordinate--><g id="link_CheapestCostState_Coordinate"><path codeLine="37" d="M1115.21,365.09 C966.83,395.04 760.0813,436.7724 653.2113,458.3524 " fill="none" id="CheapestCostState-to-Coordinate" style="stroke:#181818;stroke-width:1.0;stroke-dasharray:7.0,7.0;"/><polygon fill="#181818" points="647.33,459.54,656.9437,461.6795,652.2311,458.5503,655.3602,453.8377,647.33,459.54" style="stroke:#181818;stroke-width:1.0;"/></g><!--SRC=[jPFFRiCW3CRlF0MtjPf8xb6KIwQTTbhx0Xxn6YG24PYjqhPt7oNxGqEFxGti7_u-6xWRYMRVrFMimL2OT2NjL4iDtej1mS71n5ZQyjvQDoW3XBnj7Sguwph-mJWN6aXH6B3XWmql6bFCciDvyEktqhCDXBqrX4TA1I8kWtDeQ4UnVhCGQPsoznwNpCRWUu5i6_vcrR2G4hGCqG-c_4R-cVODVrAUslyskcqPEfbKqPXx1OcPne_DQvHVPh0RhOkdw24IOEIDL1x1dqJsQhgHG3yYp56XjvwkhP1Dl_qKulB82chTSW4KbjdPUnIYovzVThggkkmJiCitk8AA2rZbo_cjW6y0]--></g></svg>
