<svg xmlns="http://www.w3.org/2000/svg" xmlns:xlink="http://www.w3.org/1999/xlink" contentStyleType="text/css" height="346px" preserveAspectRatio="none" style="width:1465px;height:346px;background:#FFFFFF;" version="1.1" viewBox="0 0 1465 346" width="1465px" zoomAndPan="magnify"><defs/><g><line style="stroke:#181818;stroke-width:0.5;stroke-dasharray:5.0,5.0;" x1="124.5664" x2="124.5664" y1="38.6211" y2="308.9492"/><line style="stroke:#181818;stroke-width:0.5;stroke-dasharray:5.0,5.0;" x1="481.7085" x2="481.7085" y1="38.6211" y2="308.9492"/><line style="stroke:#181818;stroke-width:0.5;stroke-dasharray:5.0,5.0;" x1="831.9336" x2="831.9336" y1="38.6211" y2="308.9492"/><line style="stroke:#181818;stroke-width:0.5;stroke-dasharray:5.0,5.0;" x1="998.25" x2="998.25" y1="38.6211" y2="308.9492"/><line style="stroke:#181818;stroke-width:0.5;stroke-dasharray:5.0,5.0;" x1="1417.0322" x2="1417.0322" y1="38.6211" y2="308.9492"/><rect fill="#E2E2F0" height="32.6211" rx="2.5" ry="2.5" style="stroke:#181818;stroke-width:0.5;" width="124.4961" x="62.5664" y="5"/><text fill="#000000" font-family="sans-serif" font-size="14" lengthAdjust="spacing" textLength="110.4961" x="69.5664" y="27.1074">MapboxController</text><rect fill="#E2E2F0" height="32.6211" rx="2.5" ry="2.5" style="stroke:#181818;stroke-width:0.5;" width="124.4961" x="62.5664" y="307.9492"/><text fill="#000000" font-family="sans-serif" font-size="14" lengthAdjust="spacing" textLength="110.4961" x="69.5664" y="330.0566">MapboxController</text><rect fill="#E2E2F0" height="32.6211" rx="2.5" ry="2.5" style="stroke:#181818;stroke-width:0.5;" width="110.4893" x="426.7085" y="5"/><text fill="#000000" font-family="sans-serif" font-size="14" lengthAdjust="spacing" textLength="96.4893" x="433.7085" y="27.1074">MapboxService</text><rect fill="#E2E2F0" height="32.6211" rx="2.5" ry="2.5" style="stroke:#181818;stroke-width:0.5;" width="110.4893" x="426.7085" y="307.9492"/><text fill="#000000" font-family="sans-serif" font-size="14" lengthAdjust="spacing" textLength="96.4893" x="433.7085" y="330.0566">MapboxService</text><rect fill="#E2E2F0" height="32.6211" rx="2.5" ry="2.5" style="stroke:#181818;stroke-width:0.5;" width="167.3164" x="748.9336" y="5"/><text fill="#000000" font-family="sans-serif" font-size="14" lengthAdjust="spacing" textLength="153.3164" x="755.9336" y="27.1074">MapboxRoutingManager</text><rect fill="#E2E2F0" height="32.6211" rx="2.5" ry="2.5" style="stroke:#181818;stroke-width:0.5;" width="167.3164" x="748.9336" y="307.9492"/><text fill="#000000" font-family="sans-serif" font-size="14" lengthAdjust="spacing" textLength="153.3164" x="755.9336" y="330.0566">MapboxRoutingManager</text><rect fill="#E2E2F0" height="32.6211" rx="2.5" ry="2.5" style="stroke:#181818;stroke-width:0.5;" width="144.751" x="926.25" y="5"/><text fill="#000000" font-family="sans-serif" font-size="14" lengthAdjust="spacing" textLength="130.751" x="933.25" y="27.1074">MapboxRoutingState</text><rect fill="#E2E2F0" height="32.6211" rx="2.5" ry="2.5" style="stroke:#181818;stroke-width:0.5;" width="144.751" x="926.25" y="307.9492"/><text fill="#000000" font-family="sans-serif" font-size="14" lengthAdjust="spacing" textLength="130.751" x="933.25" y="330.0566">MapboxRoutingState</text><rect fill="#E2E2F0" height="32.6211" rx="2.5" ry="2.5" style="stroke:#181818;stroke-width:0.5;" width="84.041" x="1375.0322" y="5"/><text fill="#000000" font-family="sans-serif" font-size="14" lengthAdjust="spacing" textLength="70.041" x="1382.0322" y="27.1074">MapboxApi</text><rect fill="#E2E2F0" height="32.6211" rx="2.5" ry="2.5" style="stroke:#181818;stroke-width:0.5;" width="84.041" x="1375.0322" y="307.9492"/><text fill="#000000" font-family="sans-serif" font-size="14" lengthAdjust="spacing" textLength="70.041" x="1382.0322" y="330.0566">MapboxApi</text><polygon fill="#181818" points="112.8145,67.9121,122.8145,71.9121,112.8145,75.9121,116.8145,71.9121" style="stroke:#181818;stroke-width:1.0;"/><line style="stroke:#181818;stroke-width:1.0;" x1="0" x2="118.8145" y1="71.9121" y2="71.9121"/><text fill="#000000" font-family="sans-serif" font-size="13" font-weight="bold" lengthAdjust="spacing" textLength="7.23" x="7" y="66.6494">1</text><text fill="#000000" font-family="sans-serif" font-size="13" lengthAdjust="spacing" textLength="89.5845" x="18.23" y="66.6494">GET /directions</text><polygon fill="#181818" points="469.9531,99.2031,479.9531,103.2031,469.9531,107.2031,473.9531,103.2031" style="stroke:#181818;stroke-width:1.0;"/><line style="stroke:#181818;stroke-width:1.0;" x1="124.8145" x2="475.9531" y1="103.2031" y2="103.2031"/><text fill="#000000" font-family="sans-serif" font-size="13" font-weight="bold" lengthAdjust="spacing" textLength="7.23" x="131.8145" y="97.9404">2</text><text fill="#000000" font-family="sans-serif" font-size="13" lengthAdjust="spacing" textLength="321.9087" x="143.0444" y="97.9404">directions = getDirections(origin, waypoints, destination)</text><polygon fill="#181818" points="820.5918,130.4941,830.5918,134.4941,820.5918,138.4941,824.5918,134.4941" style="stroke:#181818;stroke-width:1.0;"/><line style="stroke:#181818;stroke-width:1.0;" x1="481.9531" x2="826.5918" y1="134.4941" y2="134.4941"/><text fill="#000000" font-family="sans-serif" font-size="13" font-weight="bold" lengthAdjust="spacing" textLength="7.23" x="488.9531" y="129.2314">3</text><text fill="#000000" font-family="sans-serif" font-size="13" lengthAdjust="spacing" textLength="315.4087" x="500.1831" y="129.2314">directions = getDirection(origin, waypoints, destination)</text><polygon fill="#181818" points="986.6255,161.7852,996.6255,165.7852,986.6255,169.7852,990.6255,165.7852" style="stroke:#181818;stroke-width:1.0;"/><line style="stroke:#181818;stroke-width:1.0;" x1="832.5918" x2="992.6255" y1="165.7852" y2="165.7852"/><text fill="#000000" font-family="sans-serif" font-size="13" font-weight="bold" lengthAdjust="spacing" textLength="7.23" x="839.5918" y="160.5225">4</text><text fill="#000000" font-family="sans-serif" font-size="13" lengthAdjust="spacing" textLength="126.1025" x="850.8218" y="160.5225">routing = getRouting()</text><polygon fill="#181818" points="1405.0527,193.0762,1415.0527,197.0762,1405.0527,201.0762,1409.0527,197.0762" style="stroke:#181818;stroke-width:1.0;"/><line style="stroke:#181818;stroke-width:1.0;" x1="832.5918" x2="1411.0527" y1="197.0762" y2="197.0762"/><text fill="#000000" font-family="sans-serif" font-size="13" font-weight="bold" lengthAdjust="spacing" textLength="7.23" x="839.5918" y="191.8135">5</text><text fill="#000000" font-family="sans-serif" font-size="13" lengthAdjust="spacing" textLength="549.231" x="850.8218" y="191.8135">directions = GET /&lt;routing&gt;/&lt;origin&gt;;[waypoints];&lt;destination&gt;?access_token=&lt;access_token&gt;</text><polygon fill="#181818" points="492.9531,224.3672,482.9531,228.3672,492.9531,232.3672,488.9531,228.3672" style="stroke:#181818;stroke-width:1.0;"/><line style="stroke:#181818;stroke-width:1.0;" x1="486.9531" x2="831.5918" y1="228.3672" y2="228.3672"/><text fill="#000000" font-family="sans-serif" font-size="13" font-weight="bold" lengthAdjust="spacing" textLength="7.23" x="498.9531" y="223.1045">6</text><text fill="#000000" font-family="sans-serif" font-size="13" lengthAdjust="spacing" textLength="55.6372" x="510.1831" y="223.1045">directions</text><polygon fill="#181818" points="135.8145,255.6582,125.8145,259.6582,135.8145,263.6582,131.8145,259.6582" style="stroke:#181818;stroke-width:1.0;"/><line style="stroke:#181818;stroke-width:1.0;" x1="129.8145" x2="480.9531" y1="259.6582" y2="259.6582"/><text fill="#000000" font-family="sans-serif" font-size="13" font-weight="bold" lengthAdjust="spacing" textLength="7.23" x="141.8145" y="254.3955">7</text><text fill="#000000" font-family="sans-serif" font-size="13" lengthAdjust="spacing" textLength="55.6372" x="153.0444" y="254.3955">directions</text><polygon fill="#181818" points="11,286.9492,1,290.9492,11,294.9492,7,290.9492" style="stroke:#181818;stroke-width:1.0;"/><line style="stroke:#181818;stroke-width:1.0;" x1="5" x2="123.8145" y1="290.9492" y2="290.9492"/><text fill="#000000" font-family="sans-serif" font-size="13" font-weight="bold" lengthAdjust="spacing" textLength="7.23" x="17" y="285.6865">8</text><text fill="#000000" font-family="sans-serif" font-size="13" lengthAdjust="spacing" textLength="55.6372" x="28.23" y="285.6865">directions</text><!--SRC=[ZL9DJuD04BtlhvXZJThqJYd6jCPJBzR40p5ckcnm0iwIPQZstuk5RA5WyJXv7_FspM8bbglFWt7gWn835UV4cKcKAj09QIgG1NPO7Eptnh8uc-SrTmZkZJkIDYF8iws4EDqXOpegRGbxGHdJFnJqjsZhw7X3sx8s9vrFirunppnBnOjeyEu0dXvVO9cGCrh8Sgck6U1LRI41NDYmXjJ8riypwoWbdiCNdWfBBEKS4bFMMV0NlrCzfujrlz4R6_wveEyts7Ck903NJCsA5ffDMTJ7kyftRZ1ipQ9bs4ICLh7F-BOAEo6ZUzJQbEMxsCpmEknEqLL3uMAoeU75l6ZaOYhsQFSNT0W_]--></g></svg>